<?xml version="1.0" encoding="UTF-8"?> <svg xmlns="http://www.w3.org/2000/svg" xmlns:xlink="http://www.w3.org/1999/xlink" id="Layer_1" data-name="Layer 1" viewBox="0 0 114.95 90"><defs><style> .cls-1 { fill: url(#linear-gradient-2); } .cls-2 { fill: #0f5930; } .cls-3 { fill: #fff; } .cls-4 { fill: #ffa022; } .cls-5 { fill: url(#linear-gradient-3); } .cls-6 { fill: url(#linear-gradient); } .cls-7 { fill: url(#linear-gradient-4); } </style><linearGradient id="linear-gradient" x1="0" y1="52" x2="114.95" y2="52" gradientTransform="translate(0 110) scale(1 -1)" gradientUnits="userSpaceOnUse"><stop offset="0" stop-color="#ffa022"></stop><stop offset=".77" stop-color="#d6ca2c"></stop><stop offset=".95" stop-color="#ffa022"></stop></linearGradient><linearGradient id="linear-gradient-2" x1="43.17" y1="67.07" x2="40.61" y2="80.02" gradientTransform="translate(0 110) scale(1 -1)" gradientUnits="userSpaceOnUse"><stop offset="0" stop-color="#66d435"></stop><stop offset="1" stop-color="#e0f135"></stop></linearGradient><linearGradient id="linear-gradient-3" x1="-74.04" y1="588.81" x2="-76.6" y2="601.76" gradientTransform="translate(3.56 626.22) rotate(13.93) scale(1 -1)" gradientUnits="userSpaceOnUse"><stop offset="0" stop-color="#66d435"></stop><stop offset="1" stop-color="#e0f135"></stop></linearGradient><linearGradient id="linear-gradient-4" x1="29.59" y1="-720.71" x2="55.39" y2="-696.39" gradientTransform="translate(-228.8 -631.9) rotate(-20.7) scale(1 -1)" gradientUnits="userSpaceOnUse"><stop offset="0" stop-color="#66d435"></stop><stop offset="1" stop-color="#e0f135"></stop></linearGradient></defs><g><path class="cls-2" d="m58.62,36.37c.78,2.04-15.94-25.78,11.78-33.61,0,0-.26,4.6-.01,12.2.22,7-1.98,12.46-6.53,15.77-3.07,2.23-5.23,5.63-5.23,5.63Z"></path><path class="cls-6" d="m114.95,81.54s-26.78-3.41-48.49-2.72C42.07,79.59,0,90,0,90V26.01s25.02,6.48,57.48,6.48c26.43,0,57.48-6.48,57.48-6.48v55.53Z"></path><path class="cls-2" d="m114.95,73.9s-20.18-1.4-43.17-.03C46.79,75.36,0,90,0,90V26.01s25.02,4.57,57.48,4.57c26.43,0,57.48-4.57,57.48-4.57v47.89h0Z"></path><path class="cls-2" d="m23.38,22.27s28.51-4.1,32.77,18.56c0,0-6.54-2.17-14.16-1.99-7.62.19-12.83-5.14-15.21-10.38-2.38-5.23-3.4-6.2-3.4-6.2h0Z"></path><path class="cls-2" d="m63.23,36.94s6.48-20.73,25.05-9.5c0,0-3.24-.72-5.71,3.67-2.48,4.39-9.05,5.68-12.55,5.22-3.5-.45-6.79.61-6.79.61h0Z"></path><path class="cls-1" d="m23.51,21.26s28.16-6.05,33.96,16.27c0,0-6.68-1.72-14.26-1.01s-13.15-4.25-15.88-9.31c-2.73-5.06-3.82-5.96-3.82-5.96h0Z"></path><path class="cls-5" d="m61.22,35.51s6.48-20.73,25.05-9.5c0,0-3.24-.72-5.71,3.67-2.48,4.39-9.05,5.68-12.55,5.22-3.5-.45-6.79.61-6.79.61h0Z"></path><path class="cls-7" d="m57.48,33.61c.78,2.04-15.93-25.78,11.78-33.61,0,0-.26,4.6-.01,12.2.22,7-1.98,12.46-6.53,15.77-3.08,2.23-5.23,5.63-5.23,5.63h0Z"></path><path class="cls-2" d="m58.03,43.18s-.04-.15-.12-.42c-.09-.31-.19-.71-.3-1.21-.1-.5-.24-1.11-.34-1.81-.05-.35-.11-.72-.16-1.11-.04-.39-.09-.8-.13-1.23-.06-.43-.07-.87-.11-1.33-.02-.46-.07-.94-.07-1.43-.01-.98-.05-2.01.02-3.07.03-.53.03-1.07.08-1.61.05-.54.1-1.08.16-1.64.03-.27.05-.55.08-.82l.13-.82c.08-.55.17-1.1.25-1.65.21-1.09.46-2.16.69-3.21.3-1.03.59-2.04.87-3.02.34-.94.67-1.86.99-2.73.15-.44.34-.84.51-1.23.17-.39.34-.77.5-1.13.32-.72.6-1.39.91-1.94.3-.56.56-1.05.77-1.45.43-.8.67-1.26.67-1.26,0,0-.19.49-.52,1.35-.16.43-.36.95-.59,1.55-.25.59-.44,1.29-.68,2.05-.12.38-.24.77-.36,1.18-.12.41-.26.82-.35,1.27-.21.88-.42,1.81-.65,2.78-.16.97-.33,1.98-.5,3.01-.1,1.04-.22,2.08-.3,3.12-.02.52-.04,1.05-.06,1.57l-.03.78c0,.26,0,.52.01.77,0,.51.02,1.02.03,1.52.01.5.07.99.1,1.48.05.97.19,1.89.31,2.76.05.44.15.85.22,1.26.07.4.13.79.23,1.16.08.37.16.72.24,1.05.08.33.17.64.25.93.15.59.33,1.07.46,1.47.14.39.25.7.32.85.08.2.13.3.13.3l-3.65,1.9h0Z"></path><path class="cls-2" d="m56.76,39.11s.01-.03.04-.08c.03-.07.08-.15.13-.24.11-.19.27-.47.47-.79.41-.66,1.04-1.55,1.88-2.54.42-.49.88-1.01,1.4-1.54.52-.52,1.08-1.05,1.69-1.57.6-.52,1.27-1.01,1.95-1.49.69-.47,1.4-.92,2.14-1.32.37-.2.74-.4,1.12-.58.37-.19.75-.35,1.13-.51.75-.32,1.51-.6,2.26-.82.37-.13.74-.21,1.1-.31.36-.1.71-.18,1.06-.25.69-.16,1.35-.25,1.95-.34.61-.06,1.16-.15,1.66-.16.5-.02.92-.07,1.28-.06.71,0,1.11,0,1.11,0,0,0-.4.07-1.09.18-.35.05-.76.16-1.24.25-.48.09-1.01.26-1.58.41-.57.19-1.19.37-1.82.63-.32.12-.64.25-.97.39-.32.15-.66.28-.98.46-.66.32-1.32.69-1.97,1.1-.33.2-.65.41-.96.64-.32.22-.63.45-.93.69-.61.47-1.19.98-1.74,1.49-.54.53-1.06,1.06-1.52,1.6-.47.54-.89,1.08-1.27,1.61-.38.52-.71,1.04-1.01,1.52-.58.97-.98,1.8-1.23,2.38-.13.29-.21.51-.27.66-.03.08-.04.13-.05.15-.01.04-.02.06-.02.06l-3.72-1.59h0Z"></path><path class="cls-2" d="m57.31,40.86s-.04-.08-.11-.22c0-.01-.01-.03-.02-.05-.01-.02-.03-.05-.04-.07-.03-.05-.06-.11-.1-.17-.07-.12-.17-.27-.28-.43-.21-.33-.53-.72-.91-1.17-.2-.22-.41-.46-.63-.7-.23-.24-.49-.49-.75-.75-.26-.27-.54-.53-.85-.8s-.61-.56-.95-.83c-.69-.53-1.39-1.13-2.18-1.67-.39-.28-.79-.56-1.19-.85-.42-.27-.85-.54-1.27-.81-.85-.56-1.76-1.06-2.66-1.57-.89-.53-1.84-.98-2.75-1.45-.46-.23-.91-.48-1.37-.68-.46-.21-.91-.41-1.36-.62-.9-.4-1.76-.82-2.6-1.14-.84-.34-1.63-.66-2.36-.96-.73-.31-1.42-.53-2.02-.75-.6-.22-1.13-.41-1.57-.56-.87-.31-1.37-.49-1.37-.49,0,0,.51.12,1.42.32.45.1,1,.23,1.63.37.63.15,1.34.29,2.11.51.77.21,1.6.43,2.48.67.89.22,1.8.53,2.75.83.48.15.96.3,1.45.46.49.15.97.35,1.47.52.98.37,2,.71,2.98,1.14.99.42,1.99.82,2.94,1.29.48.23.96.46,1.43.68.46.25.92.5,1.36.74.91.47,1.74,1.01,2.55,1.5.4.25.78.53,1.14.78.37.25.72.5,1.05.77.33.26.65.5.95.75.29.26.57.5.83.73.51.48.95.91,1.3,1.32.17.2.33.37.46.55.07.09.13.16.19.24.03.04.06.07.08.1.03.04.06.08.08.12.1.15.18.27.23.35.03.05.05.08.05.08l-3.56,1.92h0Z"></path></g><g><path class="cls-3" d="m34.15,40.85h-12.96v2.32h1.08v2.77h1.36c.58,0,1.08.17,1.52.5.32.28.51.58.59.91-.85.12-1.6.45-2.23,1-.82.72-1.23,1.6-1.23,2.62s.4,1.82,1.19,2.44c.79.61,1.7.92,2.73.92h1.3v-2.32h-1.3c-.32,0-.59-.09-.82-.28s-.35-.45-.35-.78.14-.66.43-.93.65-.41,1.08-.41h1.47c.68,0,1.27.22,1.77.65.5.43.75.97.75,1.63v2.45h2.75v-11.16h2.17v11.16h2.75v-11.16h1.3v-2.32h-5.35,0Zm-3.62,7.02c-.64-.32-1.32-.5-2.06-.56-.13-.69-.43-1.33-.91-1.91-.66-.77-1.51-1.29-2.54-1.58v-.65h5.5v4.7h0Z"></path><path class="cls-3" d="m58.35,47.27c-.28.32-.53.48-.78.48-.2,0-.37-.07-.5-.21-.13-.14-.19-.33-.19-.57s.07-.44.21-.6c.14-.15.33-.23.57-.23v-2.32c-1.07,0-1.92.28-2.57.83s-.96,1.26-.96,2.11.32,1.66.97,2.33,1.44,1.01,2.36,1.01c.79,0,1.52-.28,2.17-.85-.03.69-.29,1.32-.78,1.9-.49.57-1.1.86-1.82.86h-1.82c-.71,0-1.32-.29-1.83-.88-.51-.59-.77-1.24-.77-1.96v-4.27h-2.75v4.05c0,1.49.52,2.76,1.57,3.8,1.05,1.05,2.31,1.57,3.78,1.57h1.82c1.47,0,2.73-.52,3.78-1.57,1.05-1.05,1.57-2.31,1.57-3.8v-3.1h-2.75l-1.28,1.41h0Z"></path><path class="cls-3" d="m93.76,40.85h-44.98v.03c-1.27.14-2.37.73-3.28,1.78-1.02,1.16-1.53,2.67-1.53,4.52v1.84c0,1.4.41,2.58,1.23,3.54.82.96,1.95,1.55,3.41,1.77v-2.32c-.53-.1-.98-.36-1.34-.77s-.54-1.01-.54-1.79v-2.71c0-1.04.24-1.89.72-2.56s1.07-1.01,1.77-1.02h14.91l2.95,3.05c-.87.3-1.57.83-2.12,1.57-.55.74-.82,1.57-.82,2.48v1.73l7.71,2.32h2.75v-11.16h7.06c-.56.84-.85,1.79-.85,2.84v.37c0,.97.35,1.8,1.04,2.49s1.53,1.04,2.51,1.04c.45,0,.77-.01.97-.04-.12.46-.33.88-.65,1.23-.52.61-1.13.91-1.84.91h-.95c-.72,0-1.34-.3-1.84-.9-.5-.6-.76-1.31-.76-2.14v-4.07h-2.75v4.07c0,1.47.52,2.73,1.57,3.78,1.05,1.05,2.31,1.57,3.78,1.57h.95c1.47,0,2.73-.52,3.78-1.57,1.05-1.05,1.57-2.31,1.57-3.78v-2.19h-2.75c0,.22-.08.41-.24.56s-.35.24-.59.24c-.36,0-.63-.12-.8-.35s-.26-.72-.26-1.45.24-1.39.72-1.89c.26-.27.56-.48.89-.61.27.85.88,1.63,1.82,2.32.79.52,1.7.87,2.73,1.04v7.67h2.75v-9.86h-1.36c-.98,0-1.84-.24-2.58-.72-.29-.19-.5-.38-.63-.59h5.87v-2.32h0Zm-21.93,11.05l-4.96-1.5v-.56c0-.32.11-.61.32-.89.22-.27.49-.46.82-.56l1.47-.45,2.34,1.08v2.88h0Zm0-5.48l-2.14-1-2.17-2.25h4.31v3.25h0Z"></path></g><g><path class="cls-4" d="m38.51,58.66c.36-.62,1.03-.93,2-.94.81,0,1.76.18,2.85.53.98.33,1.91.7,2.79,1.12l.69-1.35c-2.3-1.12-4.37-1.73-6.2-1.81h-.15c-.57,0-1.16.11-1.75.33-.65.27-1.16.69-1.52,1.24-.32.53-.53,1.06-.63,1.59-.06.37-.1.72-.12,1.07h-2.23v-.74h-1.58v1.02c-.16-.12-.31-.19-.44-.23-.13-.04-.28-.06-.45-.06h-10.64v1.51h7.74v.27c-1.28.13-2.46.48-3.56,1.06-.72.37-1.32.75-1.81,1.16-.5.41-.99.89-1.48,1.43-.01.01-.03.02-.04.04s-.03.03-.04.06v1.32c.78.02,1.29.04,1.53.06.34.03.74.09,1.2.19,1.07.23,2.02.6,2.85,1.12s1.29,1.04,1.35,1.57h1.58v-8.28h1.19c.52.03.86.29,1.02.79v7.5h1.58v-8.28h2.21v8.28h1.58v-8.28h1.27v-1.51h-1.25c.02-.64.17-1.23.44-1.78h0Zm-9.63,9.06c-.54-.4-1.1-.72-1.7-.98-.99-.42-2-.69-3.02-.82,1.32-1.2,2.89-1.93,4.72-2.19v3.98h0Z"></path><path class="cls-4" d="m83.73,60.44h-12.91v-.74h-1.58v1.02c-.16-.12-.31-.19-.44-.23-.13-.04-.28-.06-.45-.06h-20.67v-.74h-1.58v2.06c-.29-.35-.7-.66-1.24-.94-.41-.23-.9-.35-1.47-.36-.46,0-.88.1-1.25.3-.76.37-1.35.96-1.78,1.78-.38.67-.58,1.34-.58,2l.03.43c.04.45.21.89.5,1.31.32.42.75.71,1.3.87.19.04.37.06.54.06.35,0,.68-.06.99-.19.44-.19.81-.43,1.1-.71.29-.28.54-.57.75-.87l-1.32-.83c-.31.46-.66.79-1.07.98-.16.07-.3.11-.43.11-.2,0-.37-.08-.51-.24-.2-.23-.3-.53-.3-.9s.1-.75.31-1.15c.12-.27.27-.51.44-.71.41-.47.84-.71,1.3-.72.4,0,.8.18,1.22.54.42.36.76.78,1.02,1.25.28.53.43.97.43,1.34v5.13h1.58v-8.28h6.75l-.03.05c-.59.61-.93,1.38-1.01,2.32v.08c0,.44.12.87.36,1.29.28.44.66.76,1.14.96.42.17.82.25,1.2.25.22,0,.38,0,.5-.02l.31-.05.03.27-.02.13c-.02.35-.16.62-.4.81-.24.19-.56.29-.94.29s-.79-.08-1.2-.25c-.8-.32-1.5-.86-2.09-1.6-.59-.74-1.05-1.55-1.39-2.43l-1.48.53c.94,2.42,2.4,4.06,4.37,4.9.33.14.67.24,1.02.3.23.04.48.06.76.06.81,0,1.48-.22,2.01-.68.57-.51.88-1.12.92-1.83l.02-.25c-.01-.25-.03-.41-.05-.46-.08-.38-.29-.87-.64-1.46l-.12-.19-.12.05c-.56.23-1.06.35-1.48.36-.21,0-.4-.04-.56-.11-.38-.19-.58-.48-.58-.88.01-.48.22-.95.63-1.42.2-.22.42-.43.68-.63.16,1.03.72,1.8,1.67,2.32.52.24,1.04.36,1.57.36h.1c-.45.9-.68,1.79-.68,2.68,0,.44.07.88.22,1.33.15.45.4.84.76,1.19.36.35.75.59,1.18.72l.53-1.43c-.43-.15-.75-.45-.96-.9-.1-.27-.15-.58-.15-.91,0-.25.03-.51.08-.77.32-1.27.91-2.28,1.78-3.04-.18-.19-.35-.38-.53-.57s-.35-.38-.51-.57c-.38.31-.81.53-1.27.68-.2.05-.39.08-.58.08-.26,0-.51-.05-.74-.16-.38-.19-.66-.48-.82-.88-.06-.18-.08-.35-.08-.52h6.09c-.2.41-.3.8-.3,1.16,0,.63.14,1.19.43,1.67.21.38.52.83.92,1.37.63.83.94,1.5.94,2-.01.19-.03.32-.07.39-.08.19-.22.34-.44.46-.3.17-.64.26-1.02.28l.07,1.51c.57-.01,1.14-.16,1.72-.46.66-.36,1.08-.89,1.27-1.59.04-.2.06-.39.06-.58,0-.89-.38-1.81-1.14-2.76-.38-.5-.66-.89-.81-1.15-.21-.39-.32-.74-.35-1.06,0-.31.09-.58.26-.8s.37-.37.59-.46h2.14c.52.03.86.29,1.02.79v7.5h1.58v-8.28h10.06v1.95c-.23-.05-.45-.08-.66-.08-.26,0-.51.04-.75.12s-.42.16-.54.24c-.13.08-.25.16-.37.24-.1-.21-.24-.4-.41-.57-.54-.49-1.16-.75-1.88-.75h-.13c-.56,0-1.15.15-1.76.46-.59.34-1.06.79-1.4,1.35-.28.42-.41.9-.41,1.43,0,.63.21,1.14.63,1.54.45.46,1.06.74,1.81.83.3.04.58.06.86.06v-1.51c-.96,0-1.52-.22-1.68-.66-.02-.07-.03-.15-.03-.24,0-.19.06-.4.16-.63.26-.5.66-.85,1.2-1.02l.05-.02c.18-.05.4-.08.66-.09.31,0,.56.09.76.28.2.18.3.43.3.73,0,.27-.07.55-.2.83l-.13.28,1.48.53.22-.49.28-.49c.21-.34.46-.6.76-.79.2-.12.38-.17.54-.17.3,0,.52.14.66.43v4.47h1.58v-8.28h1.91l-.44.74h.16c1.64,0,2.92.31,3.86.91-1.2.35-2.23.9-3.08,1.65-.14.13-.25.23-.32.31-.07.08-.19.21-.35.38v1.34c.57,0,1.08.02,1.53.06,1.53.14,2.89.57,4.07,1.31.84.51,1.29,1.04,1.35,1.57h1.58v-8.28h1.27v-1.51h-10.28Zm7.42,7.28c-1.29-.94-2.83-1.54-4.62-1.78.67-.45,1.3-.75,1.89-.89s1.26-.24,2.02-.29l-.31-1.28c-.09-.13-.25-.3-.48-.52-.47-.42-.98-.75-1.52-1.01h3.02v5.76h0Z"></path><path class="cls-4" d="m86.52,69.73c.69.07,1.35.32,1.98.74l.97-1.2c-.87-.59-1.79-.93-2.77-1.04l-.18,1.5h0Z"></path></g></svg>